# xmcd
#
# Track frame offsets: 
#        150
#        31646
#        60177
#        79101
#        104755
#        124328
#        147543
#        168427
#        190884
#
# Disc length: 2885 seconds
#
# Revision: 0
# Processed by: cddbd v1.5.1PL0 Copyright (c) Steve Scherf et al.
# Submitted via: ExactAudioCopy v0.95a5
#
DISCID=770b4309
DTITLE=Robert Belfour - The Showbox Seattle
DYEAR=2000
DGENRE=Blues
TTITLE0=I Ain't Going Down The Road Alone By Myself
TTITLE1=What's Wrong With You
TTITLE2=Treat Me Right
TTITLE3=Misery
TTITLE4=Early In The Morning
TTITLE5=My Baby Done Quit Me
TTITLE6=A Long Way From Home
TTITLE7=Norene (?)
TTITLE8=I'll Just Stay Out All Night Long (?)
EXTD=
EXTT0=
EXTT1=
EXTT2=
EXTT3=
EXTT4=
EXTT5=
EXTT6=
EXTT7=
EXTT8=
PLAYORDER=
